<svg height="56" viewBox="0 0 27 56" width="27" xmlns="http://www.w3.org/2000/svg"><path d="m0 0h27v56h-27z" fill="none"/><path d="m18.7134 44.5c1.6096 0 3.0883-.5464 4.2739-1.4557-.0257.0324-.0496.068-.0761.0981-.4385.4979-.8748.7462-1.2955 1.1085-.3729.3211-.6116.6611-.7695.9234-.0756.1255-.1385.2383-.1777.3132-.22.4215-.3872.7496-.7244.9496-.4872.2889-1.1705.313-1.5789.313-.0815 0-.1522-.001-.2081-.001h-10.3138c-.0559 0-.1265.001-.2081.001-.4084 0-1.0918-.024-1.5793-.313-.3367-.2-.5037-.5281-.7243-.9496-.0393-.0753-.1028-.1892-.1791-.3159-.1579-.262-.3961-.6006-.7678-.9207-.4207-.3623-.8569-.6105-1.2959-1.1085-.0266-.0302-.0505-.0657-.0762-.0982 1.1856.9095 2.6644 1.4559 4.2742 1.4559h11.4267zm0-29c1.6095 0 3.088.5463 4.2736 1.4555-.0255-.0322-.0493-.0676-.0756-.0975-.439-.4978-.8752-.746-1.2959-1.1082-.5514-.4747-.8263-1.0052-.9469-1.2363-.2206-.4214-.3877-.7495-.7244-.9494-.4875-.2889-1.1709-.3129-1.5793-.3129-.0816 0-.1522.001-.2081.001h-10.3138c-.0558 0-.1265-.001-.2081-.001-.4084 0-1.0917.024-1.5788.3129-.3372.2-.5045.528-.7244.9494-.1211.2311-.396.7616-.9473 1.2363-.4208.3622-.857.6104-1.2955 1.1082-.0264.0299-.0501.0652-.0756.0974 1.1855-.9091 2.664-1.4553 4.2734-1.4553h11.4267zm1.4672 31.3524c-.1597.0939-.3324.1609-.509.2142-.4573.1377-.9419.1624-1.3065.1624l-.1268-.0005-.0813-.0004h-10.3137l-.0814.0004-.1268.0005c-.3646 0-.8492-.0247-1.3069-.1625-.1768-.0532-.3495-.1204-.5095-.2143-.0024-.0014-.0052-.002-.0076-.0034-.0515-.0306-.0906-.0695-.1364-.1038.0684.3748.1281.699.155.835.0005.0027.0017.0089.0022.0114.0518.2604.1236.6326.203.8841.0744.2359.1789.418.2953.575.471.6351 1.2131.6996 1.6868.6996.0974 0 .1832-.0023.2527-.0023h9.4601c.0695 0 .1555.0023.2529.0023.474 0 1.2162-.0645 1.687-.6998.1163-.1569.2207-.339.295-.5748.0794-.2515.1518-.6237.2031-.8841.0004-.0023.0015-.0078.002-.0101.0268-.1356.0868-.4608.1553-.8363-.046.0344-.0851.0733-.1369.104-.0024.0014-.0052.002-.0077.0034zm-11.9843-37.0701.0983.001h9.411l.0981-.001.1533-.0013c.7011 0 1.2496.1792 1.6699.5034-.002-.1888-.0033-.3461-.0033-.4401 0-1.6554-1.1727-1.8443-2.0754-1.8443h-9.0961c-.9026 0-2.0759.1889-2.0759 1.8443 0 .0941-.0013.2515-.0032.4404.4202-.3244.9688-.5037 1.6702-.5037l.1533.0013zm-2.3419 3.3508c.163-.0915.337-.1577.5159-.2086.4449-.1267.9109-.1524 1.2645-.1524l.1268.0006.0813.0004h10.3138l.0813-.0004.1268-.0006c.3536 0 .8198.0257 1.265.1525.179.051.3532.1171.5164.2086.0136.0076.0292.011.0426.019.0342.0203.059.0469.0906.0689-.0629-.3462-.117-.6411-.1436-.777-.0013-.0066-.0038-.0202-.0049-.0261-.0515-.2604-.123-.6325-.202-.8839-.074-.2358-.178-.4177-.2938-.5746-.4686-.6349-1.2068-.6995-1.6781-.6995-.0969 0-.1823.0023-.2514.0023h-9.411c-.0692 0-.1547-.0023-.2516-.0023-.4716 0-1.21.0645-1.6783.6998-.1157.1569-.2195.3387-.2933.5744-.079.2514-.1509.6235-.202.8839-.0011.0057-.0035.0189-.0048.0253-.0266.1357-.0809.4313-.1438.7779.0318-.0221.0566-.0488.0911-.0692.0134-.008.0291-.0114.0427-.019zm11.9745 37.0945-.0989-.001h-9.4601l-.0988.001-.1539.0013c-.7051 0-1.2563-.1799-1.6786-.5052.002.1852.0032.3392.0032.4319 0 1.6554 1.1789 1.8443 2.0863 1.8443h9.1437c.9073 0 2.0867-.1889 2.0867-1.8443 0-.0927.0012-.2468.0032-.4321-.4222.3253-.9735.5053-1.6788.5053l-.154-.0013zm9.1711-25.5875s-.0065 1.3105-.0617 1.7186c-.0182.1348-.0475.2717-.1088.3918-.1049.2058-.2858.3307-.5104.3704-.1018.018-.2239.0209-.3265.0128-.0859-.0068-.1638-.0335-.2426-.0633v10.3929c0 2.2766-1.0858 4.2947-2.7627 5.5809-1.1856.9094-2.6643 1.4557-4.2739 1.4557h-11.4267c-1.6097 0-3.0886-.5464-4.2742-1.4559-1.6768-1.2861-2.7625-3.3043-2.7625-5.5807v-14.9268c0-2.2768 1.0861-4.2951 2.7632-5.5813 1.1855-.9091 2.664-1.4553 4.2734-1.4553h11.4267c1.6095 0 3.088.5463 4.2736 1.4555 1.5969 1.2246 2.6494 3.1147 2.7468 5.2586.084-.0339.1672-.0604.2589-.0676.1026-.0081.2247-.0052.3265.0128.2246.0397.4056.1645.5104.3704.0612.1201.0905.257.1088.3917.0552.4082.0617 1.7187.0617 1.7187zm-2.25-2.1035c0-1.675-.6866-3.192-1.7922-4.2866-1.0914-1.0807-2.5909-1.75-4.2444-1.75h-11.4267c-1.6536 0-3.1531.6693-4.2444 1.75-1.1055 1.0947-1.7922 2.6116-1.7922 4.2866v14.9268c0 1.675.6867 3.192 1.7922 4.2866 1.0914 1.0807 2.5909 1.75 4.2444 1.75h11.4267c1.6536 0 3.1531-.6693 4.2444-1.75 1.1055-1.0947 1.7922-2.6116 1.7922-4.2866z" fill="#1d1d1f"/></svg>